<svg width="427" height="86" viewBox="0 0 427 86" fill="none" xmlns="http://www.w3.org/2000/svg">
<path d="M396.292 16.9782C396.823 5.65939 402.559 0 413.498 0C417.676 0 420.904 0.911578 423.183 2.73474C425.538 4.5579 426.715 7.10272 426.715 10.3692C426.715 13.7117 425.538 17.5099 423.183 21.764L405.293 53.6693C404.382 55.4165 403.432 56.6699 402.445 57.4295C401.533 58.1132 400.394 58.4551 399.026 58.4551C396.064 58.4551 394.658 56.6699 394.81 53.0995L396.292 16.9782ZM395.95 61.6456C398.988 61.6456 401.533 62.6711 403.584 64.7222C405.711 66.7732 406.775 69.2801 406.775 72.2427C406.775 74.2938 406.205 76.3068 405.065 78.2819C404.002 80.257 402.483 81.8902 400.508 83.1816C398.608 84.3971 396.443 85.0048 394.013 85.0048C391.05 85.0048 388.543 83.9793 386.492 81.9282C384.441 79.8772 383.377 77.3703 383.302 74.4077C383.302 72.3566 383.833 70.3436 384.897 68.3685C385.96 66.3934 387.442 64.7981 389.341 63.5827C391.316 62.2913 393.519 61.6456 395.95 61.6456Z" fill="#F80A07"/>
<path d="M363.86 8.77396C371.912 8.77396 378.104 10.5212 382.434 14.0155C386.839 17.5099 389.042 22.1438 389.042 27.9171C389.042 30.1961 388.701 32.589 388.017 35.0958C385.89 42.6923 381.674 48.3137 375.369 51.96C369.14 55.6064 361.239 57.4295 351.668 57.4295H339.931L336.057 71.2172C335.905 71.673 335.829 72.2807 335.829 73.0403C335.829 74.1038 336.057 74.9774 336.513 75.6611C337.044 76.3448 337.804 77.1424 338.792 78.054C339.627 78.8137 340.197 79.3834 340.501 79.7632C340.805 80.143 340.957 80.5988 340.957 81.1306C340.957 82.422 340.349 83.3336 339.134 83.8653C337.918 84.3971 336.133 84.663 333.778 84.663H305.177C303.202 84.663 301.721 84.3211 300.733 83.6374C299.746 82.8778 299.404 81.8523 299.708 80.5609C299.86 79.8772 300.163 79.3454 300.619 78.9656C300.999 78.5098 301.607 78.016 302.442 77.4843C303.734 76.7246 304.759 75.927 305.519 75.0914C306.279 74.2558 306.886 72.9644 307.342 71.2172L321.244 22.1058C321.548 21.1183 321.7 20.1687 321.7 19.2571C321.7 18.4215 321.548 17.7378 321.244 17.2061C321.016 16.5983 320.674 15.9147 320.218 15.155C319.535 14.1675 319.193 13.3698 319.193 12.7621C319.193 12.5342 319.269 12.1164 319.421 11.5087C319.724 10.5212 320.37 9.83746 321.358 9.45764C322.421 9.00185 324.016 8.77396 326.143 8.77396H363.86ZM360.897 33.0448C361.733 30.2341 362.151 27.7652 362.151 25.6382C362.151 21.2322 360.1 19.0292 355.998 19.0292H350.87L342.78 47.1742H347.794C350.984 47.1742 353.567 46.1867 355.542 44.2116C357.593 42.1606 359.378 38.4383 360.897 33.0448Z" fill="#F80A07"/>
<path d="M293.614 71.2172C293.31 72.2047 293.158 73.1923 293.158 74.1798C293.158 75.0154 293.272 75.7371 293.5 76.3448C293.728 76.8766 293.956 77.3324 294.184 77.7122C294.488 78.016 294.678 78.2439 294.754 78.3959C295.513 79.1555 295.893 79.9152 295.893 80.6748C295.893 80.8267 295.817 81.2066 295.665 81.8143C295.361 82.8778 294.678 83.6374 293.614 84.0932C292.627 84.4731 291.069 84.663 288.942 84.663H261.937C260.341 84.663 259.088 84.3971 258.176 83.8653C257.341 83.3336 256.923 82.6119 256.923 81.7003C256.923 81.2445 257.037 80.7508 257.265 80.219C257.493 79.6113 257.797 79.1555 258.176 78.8516C258.632 78.4718 259.24 78.054 260 77.5982C261.215 76.9145 262.203 76.1549 262.962 75.3193C263.722 74.4837 264.368 73.1163 264.899 71.2172L267.862 61.4177H250.086L247.01 67.9127C245.718 70.7234 245.073 72.9264 245.073 74.5216C245.073 75.4332 245.224 76.1929 245.528 76.8006C245.832 77.3323 246.288 77.9021 246.896 78.5098C247.427 79.1175 247.769 79.6493 247.921 80.1051C248.149 80.4849 248.187 81.0167 248.035 81.7003C247.731 82.8398 247.086 83.6374 246.098 84.0932C245.186 84.4731 243.705 84.663 241.654 84.663H224.676C222.929 84.663 221.599 84.3591 220.688 83.7514C219.776 83.0677 219.32 82.1941 219.32 81.1306C219.32 79.9152 219.776 78.9656 220.688 78.2819C221.523 77.5223 222.815 76.7246 224.562 75.889C226.841 74.7495 228.664 73.6481 230.031 72.5845C231.399 71.4451 232.576 69.8878 233.564 67.9127L253.846 25.8661C256.961 19.3331 260.607 14.6233 264.785 11.7366C269.039 8.77396 274.623 7.29264 281.536 7.29264C289.284 7.29264 295.285 8.8879 299.539 12.0784C303.793 15.193 305.92 19.561 305.92 25.1824C305.92 27.5373 305.541 29.9682 304.781 32.475L293.614 71.2172ZM271.28 50.0229L277.32 29.9682C277.624 29.0566 277.775 28.107 277.775 27.1195C277.775 25.6762 277.358 24.6126 276.522 23.929C275.762 23.1693 274.661 22.7895 273.218 22.7895C271.394 22.7895 269.837 23.3212 268.546 24.3848C267.254 25.4483 265.963 27.3474 264.672 30.0821L255.328 50.0229H271.28Z" fill="#F80A07"/>
<path d="M241.376 8.77396C245.554 8.77396 247.643 10.4832 247.643 13.9016C247.643 14.9651 247.416 16.2945 246.96 17.8898L244.225 27.1195C243.389 29.9302 242.364 31.9053 241.148 33.0448C239.933 34.1842 238.186 34.754 235.907 34.754C234.008 34.754 232.526 34.2602 231.463 33.2727C230.475 32.2851 229.526 30.7278 228.614 28.6008L226.677 23.929C226.069 22.4856 225.424 21.4981 224.74 20.9663C224.056 20.4346 222.993 20.1687 221.549 20.1687H218.929L204.457 71.1032C204.229 72.0908 204.116 72.9644 204.116 73.724C204.116 74.6356 204.229 75.3952 204.457 76.003C204.761 76.6107 205.179 77.2564 205.711 77.9401C206.394 79.0036 206.736 79.8772 206.736 80.5609C206.736 80.7128 206.66 81.0926 206.508 81.7003C206.129 82.6879 205.369 83.4096 204.229 83.8653C203.166 84.3211 201.609 84.549 199.558 84.549H172.78C171.185 84.549 169.931 84.2832 169.02 83.7514C168.184 83.2196 167.766 82.46 167.766 81.4724C167.766 81.0167 167.88 80.5609 168.108 80.1051C168.412 79.4214 168.754 78.9276 169.134 78.6238C169.589 78.2439 170.235 77.7881 171.071 77.2564C172.21 76.5727 173.16 75.8131 173.919 74.9774C174.679 74.1418 175.325 72.8504 175.857 71.1032L190.214 20.1687H187.593C185.922 20.1687 184.555 20.4346 183.491 20.9663C182.428 21.4981 181.288 22.4856 180.073 23.929L176.312 28.6008C174.565 30.6519 172.856 32.2091 171.185 33.2727C169.589 34.2602 167.842 34.754 165.943 34.754C164.196 34.754 162.829 34.2982 161.841 33.3866C160.853 32.475 160.36 31.2216 160.36 29.6263C160.36 28.8667 160.474 28.0311 160.702 27.1195L163.664 16.7503C164.272 14.6233 164.956 13.028 165.715 11.9645C166.475 10.825 167.538 10.0274 168.906 9.57159C170.349 9.03983 172.362 8.77396 174.945 8.77396H241.376Z" fill="#F80A07"/>
<path d="M119.424 24.3848C129.755 24.3848 137.352 26.4738 142.214 30.6519C147.151 34.8299 149.62 40.2994 149.62 47.0603C149.62 49.3393 149.316 51.8841 148.709 54.6948C147.265 60.9239 144.568 66.3934 140.618 71.1032C136.668 75.7371 131.806 79.3454 126.033 81.9282C120.336 84.4351 114.144 85.6885 107.46 85.6885C96.9004 85.6885 89.0761 83.5995 83.9864 79.4214C78.9727 75.1673 76.4659 69.5459 76.4659 62.5572C76.4659 60.2022 76.7697 57.5815 77.3774 54.6948C78.8208 48.7695 81.5555 43.5279 85.5817 38.97C89.6838 34.3362 94.6595 30.7658 100.509 28.259C106.434 25.6762 112.739 24.3848 119.424 24.3848ZM119.082 34.5261C117.487 34.5261 115.778 35.9694 113.955 38.8561C112.207 41.6668 110.118 47.0223 107.687 54.9227C105.257 62.823 104.041 68.3685 104.041 71.559C104.041 73.2302 104.307 74.3697 104.839 74.9774C105.371 75.5092 106.092 75.7751 107.004 75.7751C108.599 75.927 110.232 74.5596 111.904 71.673C113.651 68.7863 115.816 63.1649 118.399 54.8087C120.753 47.4401 121.931 42.0846 121.931 38.7421C121.931 37.1469 121.665 36.0454 121.133 35.4377C120.677 34.8299 119.994 34.5261 119.082 34.5261Z" fill="#F80A07"/>
<path d="M76.3448 8.31817C79.6873 8.31817 82.422 9.41966 84.549 11.6226C86.676 13.7497 87.7396 16.4844 87.7396 19.8269C87.7396 20.2827 87.6636 21.1183 87.5117 22.3337C86.9039 25.98 85.4606 28.6768 83.1816 30.424C80.9787 32.1712 78.3959 33.0448 75.4332 33.0448C73.4581 33.0448 71.7869 32.7409 70.4195 32.1332C69.0522 31.5255 67.7608 30.4999 66.5453 29.0566L47.744 53.5553L42.5024 71.2172C42.3505 71.673 42.2745 72.2807 42.2745 73.0403C42.2745 74.1038 42.5404 75.0154 43.0721 75.7751C43.6039 76.4588 44.3635 77.2184 45.3511 78.054C46.1867 78.8137 46.7944 79.4594 47.1743 79.9911C47.5541 80.5229 47.63 81.1306 47.4021 81.8143C47.0983 82.8778 46.3386 83.6374 45.1232 84.0932C43.9837 84.4731 42.3885 84.663 40.3374 84.663H11.6226C9.64755 84.663 8.16624 84.3211 7.17869 83.6374C6.26711 82.8778 5.96325 81.8523 6.26711 80.5609C6.41904 79.8772 6.68492 79.3454 7.06474 78.9656C7.52053 78.5098 8.20422 77.978 9.1158 77.3703C10.2553 76.6866 11.2048 75.927 11.9645 75.0914C12.7241 74.1798 13.3698 72.8884 13.9016 71.2172L19.1432 53.4414L8.66001 23.5871C7.90036 21.3841 6.98878 19.7129 5.92527 18.5734C4.93772 17.358 3.76027 16.1805 2.3929 15.0411C1.55728 14.4333 0.949564 13.9016 0.569738 13.4458C0.189913 12.99 0 12.4583 0 11.8505C0 10.939 0.379826 10.2173 1.13948 9.68554C1.97509 9.07782 3.15255 8.77396 4.67185 8.77396H35.0958C37.7546 8.77396 39.5778 9.00185 40.5653 9.45764C41.5528 9.91343 42.0846 10.7111 42.1606 11.8505C42.1606 12.5342 42.0086 13.1419 41.7048 13.6737C41.4009 14.1295 40.9451 14.6992 40.3374 15.3829C39.6537 16.2945 39.122 17.0541 38.7421 17.6619C38.4383 18.1936 38.2863 18.8773 38.2863 19.7129C38.2863 19.9408 38.3623 20.4346 38.5142 21.1942L43.7558 41.249L58.2272 20.6245C61.3417 16.2185 64.2664 13.066 67.0011 11.1669C69.8118 9.26773 72.9264 8.31817 76.3448 8.31817Z" fill="#F80A07"/>
</svg>
